<?xml version="1.0" encoding="UTF-8"?>
<!DOCTYPE svg PUBLIC "-//W3C//DTD SVG 1.1//EN" "http://www.w3.org/Graphics/SVG/1.1/DTD/svg11.dtd">
<!-- Creator: CorelDRAW -->
<svg xmlns="http://www.w3.org/2000/svg" xml:space="preserve" width="58px" height="58px" version="1.1" style="shape-rendering:geometricPrecision; text-rendering:geometricPrecision; image-rendering:optimizeQuality; fill-rule:evenodd; clip-rule:evenodd"
viewBox="0 0 58 58"
 xmlns:xlink="http://www.w3.org/1999/xlink"
 xmlns:xodm="http://www.corel.com/coreldraw/odm/2003">
 <defs>
  <style type="text/css">
   <![CDATA[
    .fil0 {fill:#1264A3;fill-rule:nonzero}
   ]]>
  </style>
 </defs>
 <g id="Capa_x0020_1">
  <metadata id="CorelCorpID_0Corel-Layer"/>
  <path class="fil0" d="M12.06 52.04c-2.06,0 -3.95,-0.54 -5.69,-1.62 -1.73,-1.07 -3.11,-2.52 -4.13,-4.34 -1.02,-1.83 -1.52,-3.81 -1.52,-5.97 0,-1.95 0.42,-3.79 1.27,-5.49 0.87,-1.71 2.04,-3.11 3.53,-4.21 -0.32,-1.13 -0.48,-2.26 -0.48,-3.4 0,-2.15 0.51,-4.13 1.53,-5.96 1.02,-1.82 2.4,-3.26 4.13,-4.32 1.73,-1.07 3.62,-1.61 5.66,-1.61 0.3,0 0.75,0.02 1.35,0.06 1.68,-2.84 3.92,-5.09 6.71,-6.74 2.81,-1.65 5.82,-2.48 9.05,-2.48 3.34,0 6.43,0.89 9.28,2.65 2.84,1.75 5.1,4.12 6.76,7.12 1.67,2.99 2.51,6.25 2.51,9.79 1.66,1.4 2.95,3.12 3.88,5.15 0.92,2.04 1.38,4.19 1.38,6.48 0,2.69 -0.64,5.17 -1.92,7.46 -1.26,2.28 -2.98,4.09 -5.15,5.41 -2.15,1.34 -4.5,2.02 -7.07,2.02l-31.08 0zm31.08 -4.32c1.79,0 3.44,-0.47 4.95,-1.41 1.53,-0.96 2.74,-2.25 3.62,-3.86 0.89,-1.63 1.33,-3.4 1.33,-5.3 0,-1.92 -0.44,-3.69 -1.33,-5.3 -0.88,-1.63 -2.07,-2.92 -3.56,-3.86 -0.17,-0.09 -0.29,-0.2 -0.37,-0.32 -0.06,-0.11 -0.08,-0.26 -0.08,-0.46 0,-0.17 0.01,-0.41 0.02,-0.72 0.04,-0.3 0.06,-0.61 0.06,-0.92 0,-2.76 -0.64,-5.32 -1.92,-7.66 -1.28,-2.34 -3.03,-4.19 -5.24,-5.55 -2.18,-1.39 -4.57,-2.08 -7.15,-2.08 -1.96,0 -3.82,0.41 -5.57,1.21 -1.76,0.79 -3.29,1.9 -4.61,3.34 -1.32,1.44 -2.34,3.08 -3.06,4.93 -0.11,0.3 -0.28,0.46 -0.51,0.46 -0.13,0 -0.26,-0.04 -0.39,-0.12 -0.93,-0.44 -1.92,-0.66 -2.97,-0.66 -1.29,0 -2.47,0.34 -3.57,1.01 -1.07,0.67 -1.93,1.59 -2.57,2.76 -0.62,1.15 -0.93,2.42 -0.93,3.8 0,0.92 0.14,1.81 0.42,2.65 0.3,0.83 0.72,1.58 1.24,2.25 0.14,0.15 0.2,0.3 0.2,0.43 0,0.17 -0.16,0.29 -0.48,0.35 -1.07,0.21 -2.04,0.67 -2.91,1.38 -0.87,0.71 -1.56,1.59 -2.07,2.65 -0.49,1.05 -0.73,2.19 -0.73,3.39 0,1.39 0.31,2.66 0.93,3.83 0.64,1.16 1.51,2.08 2.6,2.77 1.1,0.67 2.29,1.01 3.57,1.01l31.08 0zm-13.43 -5.76c-0.57,0 -1.07,-0.22 -1.5,-0.66l-8.49 -8.61c-0.41,-0.43 -0.62,-0.93 -0.62,-1.5 0,-0.6 0.21,-1.11 0.62,-1.53 0.44,-0.44 0.95,-0.66 1.53,-0.66 0.57,0 1.06,0.21 1.47,0.63l4.87 4.93 0 -12.04c0,-0.61 0.19,-1.12 0.59,-1.52 0.41,-0.43 0.92,-0.64 1.53,-0.64 0.54,0 1.04,0.21 1.5,0.64 0.41,0.38 0.62,0.89 0.62,1.52l0 12.04 4.89 -4.93c0.42,-0.42 0.91,-0.63 1.47,-0.63 0.53,0 1.05,0.24 1.56,0.72 0.37,0.36 0.56,0.84 0.56,1.44 0,0.61 -0.2,1.12 -0.62,1.53l-8.48 8.61c-0.48,0.44 -0.97,0.66 -1.5,0.66z"/>
 </g>
</svg>
