<?xml version="1.0" encoding="UTF-8"?>
<!DOCTYPE svg PUBLIC "-//W3C//DTD SVG 1.1//EN" "http://www.w3.org/Graphics/SVG/1.1/DTD/svg11.dtd">
<!-- Creator: CorelDRAW -->
<svg xmlns="http://www.w3.org/2000/svg" xml:space="preserve" width="58px" height="58px" version="1.1" style="shape-rendering:geometricPrecision; text-rendering:geometricPrecision; image-rendering:optimizeQuality; fill-rule:evenodd; clip-rule:evenodd"
viewBox="0 0 58 58"
 xmlns:xlink="http://www.w3.org/1999/xlink"
 xmlns:xodm="http://www.corel.com/coreldraw/odm/2003">
 <defs>
  <style type="text/css">
   <![CDATA[
    .fil0 {fill:#127CC3}
   ]]>
  </style>
 </defs>
 <g id="Capa_x0020_1">
  <metadata id="CorelCorpID_0Corel-Layer"/>
  <path class="fil0" d="M53.28 0.5c2.32,0 4.22,1.82 4.22,4.1l0 48.8c0,2.24 -1.9,4.1 -4.22,4.1l-48.56 0c-2.32,0 -4.22,-1.86 -4.22,-4.1l0 -48.8c0,-2.28 1.9,-4.1 4.22,-4.1l48.56 0zm-40.09 17.67c2.67,-0.07 4.8,-2.25 4.8,-4.92 0,-2.67 -2.13,-4.85 -4.8,-4.92 -2.73,0 -4.9,2.2 -4.9,4.9 0,2.73 2.17,4.94 4.9,4.94l0 0zm35.87 16c0,-7.34 -1.55,-12.96 -10.14,-12.96 -4.11,0 -6.84,2.24 -7.98,4.37l-0.12 0 0 -3.72 -8.09 0 0 27.2 8.44 0 0 -13.45c0,-3.53 0.64,-6.99 5.05,-6.99 4.33,0 4.41,4.07 4.41,7.22l0 13.22 8.43 0 0 -14.89zm-40.12 14.9l8.47 0 0 -27.21 -8.47 0 0 27.21z"/>
 </g>
</svg>
