<?xml version="1.0" encoding="UTF-8"?>
<!DOCTYPE svg PUBLIC "-//W3C//DTD SVG 1.1//EN" "http://www.w3.org/Graphics/SVG/1.1/DTD/svg11.dtd">
<!-- Creator: CorelDRAW -->
<svg xmlns="http://www.w3.org/2000/svg" xml:space="preserve" width="58px" height="58px" version="1.1" style="shape-rendering:geometricPrecision; text-rendering:geometricPrecision; image-rendering:optimizeQuality; fill-rule:evenodd; clip-rule:evenodd"
viewBox="0 0 58 58"
 xmlns:xlink="http://www.w3.org/1999/xlink"
 xmlns:xodm="http://www.corel.com/coreldraw/odm/2003">
 <defs>
  <style type="text/css">
   <![CDATA[
    .fil0 {fill:#FEFEFE;fill-rule:nonzero}
   ]]>
  </style>
 </defs>
 <g id="Capa_x0020_1">
  <metadata id="CorelCorpID_0Corel-Layer"/>
  <path class="fil0" d="M11.93 52.22c-2.08,0 -3.98,-0.54 -5.74,-1.63 -1.74,-1.08 -3.13,-2.54 -4.16,-4.38 -1.03,-1.84 -1.53,-3.84 -1.53,-6.01 0,-1.97 0.42,-3.82 1.28,-5.54 0.88,-1.72 2.06,-3.13 3.56,-4.24 -0.33,-1.14 -0.49,-2.28 -0.49,-3.43 0,-2.16 0.52,-4.16 1.54,-6 1.03,-1.84 2.42,-3.29 4.17,-4.36 1.74,-1.07 3.65,-1.62 5.7,-1.62 0.3,0 0.76,0.02 1.36,0.06 1.69,-2.86 3.95,-5.13 6.76,-6.79 2.84,-1.66 5.87,-2.5 9.12,-2.5 3.37,0 6.48,0.9 9.36,2.67 2.86,1.76 5.14,4.15 6.81,7.18 1.68,3.01 2.53,6.3 2.53,9.86 1.67,1.41 2.97,3.15 3.91,5.19 0.93,2.06 1.39,4.23 1.39,6.53 0,2.71 -0.64,5.21 -1.93,7.52 -1.28,2.3 -3.01,4.12 -5.2,5.45 -2.16,1.35 -4.53,2.04 -7.12,2.04l-31.32 0 0 0zm31.32 -4.35c1.8,0 3.47,-0.48 4.99,-1.42 1.54,-0.97 2.76,-2.27 3.65,-3.9 0.89,-1.64 1.34,-3.42 1.34,-5.34 0,-1.93 -0.45,-3.71 -1.34,-5.34 -0.89,-1.64 -2.09,-2.94 -3.59,-3.89 -0.17,-0.09 -0.29,-0.2 -0.37,-0.32 -0.06,-0.11 -0.08,-0.26 -0.08,-0.46 0,-0.18 0.01,-0.42 0.02,-0.73 0.04,-0.3 0.06,-0.61 0.06,-0.93 0,-2.78 -0.65,-5.36 -1.94,-7.72 -1.29,-2.35 -3.05,-4.22 -5.28,-5.59 -2.2,-1.4 -4.6,-2.1 -7.21,-2.1 -1.97,0 -3.85,0.42 -5.61,1.22 -1.77,0.8 -3.31,1.92 -4.64,3.37 -1.34,1.45 -2.36,3.1 -3.09,4.97 -0.11,0.3 -0.28,0.46 -0.51,0.46 -0.13,0 -0.26,-0.04 -0.4,-0.12 -0.93,-0.44 -1.93,-0.66 -2.99,-0.66 -1.3,0 -2.49,0.34 -3.6,1.01 -1.07,0.68 -1.94,1.61 -2.59,2.79 -0.62,1.15 -0.93,2.43 -0.93,3.82 0,0.93 0.14,1.83 0.42,2.67 0.3,0.84 0.73,1.6 1.25,2.27 0.14,0.15 0.2,0.31 0.2,0.44 0,0.17 -0.16,0.29 -0.48,0.35 -1.08,0.21 -2.06,0.67 -2.94,1.39 -0.87,0.72 -1.57,1.6 -2.08,2.67 -0.49,1.06 -0.74,2.21 -0.74,3.42 0,1.4 0.31,2.68 0.94,3.86 0.64,1.17 1.52,2.09 2.62,2.79 1.11,0.67 2.31,1.01 3.6,1.01l31.32 0 0 0.01zm-13.53 -5.81c-0.58,0 -1.08,-0.22 -1.52,-0.66l-8.55 -8.68c-0.42,-0.43 -0.63,-0.94 -0.63,-1.51 0,-0.61 0.21,-1.12 0.63,-1.55 0.44,-0.44 0.95,-0.66 1.54,-0.66 0.57,0 1.07,0.21 1.48,0.64l4.91 4.96 0 -12.13c0,-0.61 0.19,-1.13 0.59,-1.53 0.42,-0.44 0.93,-0.65 1.54,-0.65 0.55,0 1.05,0.21 1.52,0.65 0.41,0.38 0.62,0.9 0.62,1.53l0 12.13 4.93 -4.96c0.42,-0.43 0.92,-0.64 1.48,-0.64 0.54,0 1.06,0.24 1.57,0.73 0.38,0.36 0.57,0.84 0.57,1.45 0,0.61 -0.2,1.13 -0.63,1.54l-8.54 8.68c-0.49,0.44 -0.98,0.66 -1.52,0.66l0.01 0z"/>
 </g>
</svg>
