<?xml version="1.0" encoding="UTF-8"?>
<!DOCTYPE svg PUBLIC "-//W3C//DTD SVG 1.1//EN" "http://www.w3.org/Graphics/SVG/1.1/DTD/svg11.dtd">
<!-- Creator: CorelDRAW -->
<svg xmlns="http://www.w3.org/2000/svg" xml:space="preserve" width="58px" height="58px" version="1.1" style="shape-rendering:geometricPrecision; text-rendering:geometricPrecision; image-rendering:optimizeQuality; fill-rule:evenodd; clip-rule:evenodd"
viewBox="0 0 58 58"
 xmlns:xlink="http://www.w3.org/1999/xlink"
 xmlns:xodm="http://www.corel.com/coreldraw/odm/2003">
 <defs>
  <style type="text/css">
   <![CDATA[
    .fil0 {fill:#127CC3;fill-rule:nonzero}
   ]]>
  </style>
 </defs>
 <g id="Capa_x0020_1">
  <metadata id="CorelCorpID_0Corel-Layer"/>
  <path class="fil0" d="M57.5 11.32c-2.1,0.93 -4.35,1.56 -6.72,1.84 2.42,-1.44 4.27,-3.74 5.15,-6.47 -2.27,1.34 -4.77,2.32 -7.43,2.84 -2.13,-2.27 -5.17,-3.69 -8.54,-3.69 -6.46,0 -11.69,5.23 -11.69,11.69 0,0.92 0.1,1.81 0.3,2.67 -9.72,-0.49 -18.33,-5.15 -24.1,-12.22 -1.01,1.73 -1.59,3.74 -1.59,5.88 0,4.06 2.07,7.63 5.2,9.73 -1.91,-0.06 -3.72,-0.59 -5.29,-1.46l0 0.14c0,5.67 4.03,10.4 9.38,11.47 -0.98,0.27 -2.02,0.41 -3.08,0.41 -0.76,0 -1.49,-0.07 -2.2,-0.2 1.48,4.64 5.81,8.02 10.92,8.12 -4,3.13 -9.04,5 -14.52,5 -0.95,0 -1.88,-0.05 -2.79,-0.16 5.18,3.32 11.32,5.25 17.93,5.25 21.5,0 33.27,-17.82 33.27,-33.27 0,-0.51 -0.02,-1.01 -0.04,-1.52 2.29,-1.64 4.27,-3.7 5.84,-6.05l0 0z"/>
 </g>
</svg>
