<?xml version="1.0" encoding="UTF-8"?>
<!DOCTYPE svg PUBLIC "-//W3C//DTD SVG 1.1//EN" "http://www.w3.org/Graphics/SVG/1.1/DTD/svg11.dtd">
<!-- Creator: CorelDRAW -->
<svg xmlns="http://www.w3.org/2000/svg" xml:space="preserve" width="58px" height="58px" version="1.1" style="shape-rendering:geometricPrecision; text-rendering:geometricPrecision; image-rendering:optimizeQuality; fill-rule:evenodd; clip-rule:evenodd"
viewBox="0 0 58 58"
 xmlns:xlink="http://www.w3.org/1999/xlink"
 xmlns:xodm="http://www.corel.com/coreldraw/odm/2003">
 <defs>
  <style type="text/css">
   <![CDATA[
    .fil0 {fill:black;fill-rule:nonzero}
    .fil1 {fill:white;fill-rule:nonzero}
   ]]>
  </style>
 </defs>
 <g id="Capa_x0020_1">
  <metadata id="CorelCorpID_0Corel-Layer"/>
  <g id="_2795166183728">
   <path class="fil0" d="M56.93 16.85c0,0 -0.56,-4.2 -2.26,-6.04 -2.17,-2.42 -4.6,-2.44 -5.71,-2.57 -7.98,-0.62 -19.95,-0.62 -19.95,-0.62l-0.02 0c0,0 -11.97,0 -19.94,0.61 -1.12,0.14 -3.55,0.16 -5.72,2.58 -1.7,1.84 -2.26,6.04 -2.26,6.04 0,0 -0.57,4.92 -0.57,9.83l0 4.62c0,4.92 0.57,9.84 0.57,9.84 0,0 0.56,4.19 2.26,6.03 2.18,2.42 5.02,2.35 6.29,2.6 4.56,0.47 19.38,0.61 19.38,0.61 0,0 11.98,-0.02 19.96,-0.63 1.11,-0.14 3.54,-0.16 5.71,-2.58 1.7,-1.84 2.26,-6.03 2.26,-6.03 0,0 0.57,-4.92 0.57,-9.84l0 -4.62c0,-4.91 -0.57,-9.84 -0.57,-9.84l0 0.01z"/>
   <g>
    <path class="fil1" d="M21.88 18.31l0 21.38 17.82 -10.69 -17.82 -10.69zm0 0l0 0 0 0z"/>
   </g>
  </g>
 </g>
</svg>
