<?xml version="1.0" encoding="UTF-8"?>
<!DOCTYPE svg PUBLIC "-//W3C//DTD SVG 1.1//EN" "http://www.w3.org/Graphics/SVG/1.1/DTD/svg11.dtd">
<!-- Creator: CorelDRAW -->
<svg xmlns="http://www.w3.org/2000/svg" xml:space="preserve" width="58px" height="58px" version="1.1" style="shape-rendering:geometricPrecision; text-rendering:geometricPrecision; image-rendering:optimizeQuality; fill-rule:evenodd; clip-rule:evenodd"
viewBox="0 0 58 58"
 xmlns:xlink="http://www.w3.org/1999/xlink"
 xmlns:xodm="http://www.corel.com/coreldraw/odm/2003">
 <defs>
  <style type="text/css">
   <![CDATA[
    .fil0 {fill:#127CC3}
   ]]>
  </style>
 </defs>
 <g id="Capa_x0020_1">
  <metadata id="CorelCorpID_0Corel-Layer"/>
  <path class="fil0" d="M54.35 0.5l-50.7 0c0,0 0,0 -0.01,0 -1.73,0 -3.14,1.41 -3.14,3.14 0,0.01 0,0.01 0,0.01l0 50.7c0,1.74 1.41,3.15 3.15,3.15l27.29 0 0 -22.08 -7.45 0 0 -8.55 7.45 0 0 -6.35c0,-7.37 4.52,-11.36 11.06,-11.36 3.11,0 5.85,0.19 6.65,0.34l0 7.68 -4.6 0c-3.58,0 -4.22,1.67 -4.22,4.18l0 5.51 8.47 0 -1.1 8.55 -7.37 0 0 22.08 14.52 0c1.74,0 3.15,-1.41 3.15,-3.15l0 -50.7c0,0 0,0 0,-0.01 0,-1.73 -1.41,-3.14 -3.15,-3.14 0,0 0,0 0,0z"/>
 </g>
</svg>
