<?xml version="1.0" encoding="UTF-8"?>
<!DOCTYPE svg PUBLIC "-//W3C//DTD SVG 1.1//EN" "http://www.w3.org/Graphics/SVG/1.1/DTD/svg11.dtd">
<!-- Creator: CorelDRAW -->
<svg xmlns="http://www.w3.org/2000/svg" xml:space="preserve" width="58px" height="58px" version="1.1" style="shape-rendering:geometricPrecision; text-rendering:geometricPrecision; image-rendering:optimizeQuality; fill-rule:evenodd; clip-rule:evenodd"
viewBox="0 0 58 58"
 xmlns:xlink="http://www.w3.org/1999/xlink"
 xmlns:xodm="http://www.corel.com/coreldraw/odm/2003">
 <defs>
  <style type="text/css">
   <![CDATA[
    .fil0 {fill:black;fill-rule:nonzero}
   ]]>
  </style>
 </defs>
 <g id="Capa_x0020_1">
  <metadata id="CorelCorpID_0Corel-Layer"/>
  <path class="fil0" d="M29 0.49c-7.3,0 -14.6,2.78 -20.16,8.34 -11.12,11.12 -11.12,29.22 0,40.34 11.11,11.11 29.19,11.11 40.31,0 11.12,-11.12 11.14,-29.22 0.02,-40.34 -5.56,-5.56 -12.86,-8.34 -20.17,-8.34l0 0zm-2.01 3.96l0.08 0 0 22.59 -11.69 0c0.37,-6.65 2.64,-13.17 6.84,-18.19 1.47,-1.75 3.07,-3.22 4.77,-4.4zm3.95 0l0.04 0c1.78,1.25 3.4,2.73 4.79,4.4 4.19,5.02 6.46,11.54 6.84,18.19l-11.67 0 0 -22.59 0 0zm-11.69 1.9c-4.85,5.8 -7.46,13.18 -7.85,20.69l-6.96 0c0.44,-5.63 2.8,-11.14 7.12,-15.46 2.21,-2.21 4.82,-3.99 7.69,-5.23l0 0zm19.52 0.04c2.85,1.24 5.44,3.01 7.63,5.21 4.32,4.32 6.7,9.81 7.15,15.44l-6.96 0c-0.39,-7.49 -2.99,-14.86 -7.82,-20.65zm-34.33 24.53l6.96 0c0.38,7.51 3,14.9 7.85,20.71 -2.86,-1.24 -5.47,-3.01 -7.67,-5.21 -4.32,-4.33 -6.7,-9.86 -7.14,-15.51l0 0.01zm10.94 0l11.69 0 0 22.65 -0.04 0c-1.71,-1.19 -3.33,-2.67 -4.81,-4.44 -4.21,-5.03 -6.47,-11.55 -6.84,-18.21l0 0zm15.56 0l11.67 0c-0.37,6.66 -2.64,13.17 -6.84,18.21 -1.49,1.77 -3.12,3.25 -4.83,4.44l0 -22.65 0 0zm15.65 0l6.98 0c-0.44,5.64 -2.84,11.17 -7.17,15.5 -2.2,2.21 -4.82,3.99 -7.69,5.23 0.01,-0.01 0.02,-0.01 0.02,-0.02 4.86,-5.81 7.48,-13.19 7.86,-20.71l0 0z"/>
 </g>
</svg>
