<?xml version="1.0" encoding="UTF-8"?>
<!DOCTYPE svg PUBLIC "-//W3C//DTD SVG 1.1//EN" "http://www.w3.org/Graphics/SVG/1.1/DTD/svg11.dtd">
<!-- Creator: CorelDRAW -->
<svg xmlns="http://www.w3.org/2000/svg" xml:space="preserve" width="58px" height="58px" version="1.1" style="shape-rendering:geometricPrecision; text-rendering:geometricPrecision; image-rendering:optimizeQuality; fill-rule:evenodd; clip-rule:evenodd"
viewBox="0 0 58 58"
 xmlns:xlink="http://www.w3.org/1999/xlink"
 xmlns:xodm="http://www.corel.com/coreldraw/odm/2003">
 <defs>
  <style type="text/css">
   <![CDATA[
    .fil0 {fill:white}
   ]]>
  </style>
 </defs>
 <g id="Capa_x0020_1">
  <metadata id="CorelCorpID_0Corel-Layer"/>
  <path class="fil0" d="M24.28 29l-22.8 -22.8c-1.31,-1.31 -1.31,-3.42 0,-4.72 1.3,-1.31 3.41,-1.31 4.72,0l22.8 22.8 22.81 -22.8c1.3,-1.31 3.41,-1.31 4.71,0 1.31,1.3 1.31,3.41 0,4.72l-22.8 22.8 22.8 22.81c1.31,1.3 1.31,3.41 0,4.71 -1.3,1.31 -3.41,1.31 -4.71,0l-22.81 -22.8 -22.8 22.8c-1.31,1.31 -3.42,1.31 -4.72,0 -1.31,-1.3 -1.31,-3.41 0,-4.71l22.8 -22.81z"/>
 </g>
</svg>
