<?xml version="1.0" encoding="UTF-8"?>
<!DOCTYPE svg PUBLIC "-//W3C//DTD SVG 1.1//EN" "http://www.w3.org/Graphics/SVG/1.1/DTD/svg11.dtd">
<!-- Creator: CorelDRAW -->
<svg xmlns="http://www.w3.org/2000/svg" xml:space="preserve" width="58px" height="58px" version="1.1" style="shape-rendering:geometricPrecision; text-rendering:geometricPrecision; image-rendering:optimizeQuality; fill-rule:evenodd; clip-rule:evenodd"
viewBox="0 0 58 58"
 xmlns:xlink="http://www.w3.org/1999/xlink"
 xmlns:xodm="http://www.corel.com/coreldraw/odm/2003">
 <defs>
  <style type="text/css">
   <![CDATA[
    .fil0 {fill:#FEFEFE}
    .fil4 {fill:#34A853;fill-rule:nonzero}
    .fil2 {fill:#4285F4;fill-rule:nonzero}
    .fil1 {fill:#EA4335;fill-rule:nonzero}
    .fil3 {fill:#FBBC05;fill-rule:nonzero}
   ]]>
  </style>
 </defs>
 <g id="Capa_x0020_1">
  <metadata id="CorelCorpID_0Corel-Layer"/>
  <g id="_2039482079456">
   <rect class="fil0" x="1" y="1" width="56" height="56"/>
   <g>
    <path class="fil1" d="M29.26 21.46c1.84,0 3.49,0.64 4.79,1.87l3.57 -3.56c-2.17,-2.01 -4.99,-3.25 -8.36,-3.25 -4.87,0 -9.09,2.8 -11.14,6.87l4.15 3.22c0.98,-2.96 3.74,-5.15 6.99,-5.15l0 0z"/>
    <path class="fil2" d="M41.21 29.29c0,-0.82 -0.08,-1.61 -0.19,-2.37l-11.76 0 0 4.69 6.73 0c-0.3,1.54 -1.17,2.85 -2.48,3.73l4.02 3.12c2.34,-2.17 3.68,-5.38 3.68,-9.17l0 0z"/>
    <path class="fil3" d="M22.26 31.39c-0.25,-0.76 -0.39,-1.56 -0.39,-2.39 0,-0.83 0.14,-1.63 0.39,-2.39l-4.15 -3.22c-0.85,1.69 -1.32,3.59 -1.32,5.61 0,2.02 0.47,3.92 1.33,5.61l4.14 -3.22 0 0z"/>
    <path class="fil4" d="M29.26 41.48c3.37,0 6.21,-1.11 8.27,-3.02l-4.02 -3.12c-1.12,0.75 -2.56,1.19 -4.25,1.19 -3.25,0 -6.01,-2.19 -7,-5.15l-4.15 3.22c2.06,4.08 6.28,6.88 11.15,6.88l0 0z"/>
   </g>
  </g>
 </g>
</svg>
