<?xml version="1.0" encoding="UTF-8"?>
<!DOCTYPE svg PUBLIC "-//W3C//DTD SVG 1.1//EN" "http://www.w3.org/Graphics/SVG/1.1/DTD/svg11.dtd">
<!-- Creator: CorelDRAW -->
<svg xmlns="http://www.w3.org/2000/svg" xml:space="preserve" width="32px" height="32px" version="1.1" style="shape-rendering:geometricPrecision; text-rendering:geometricPrecision; image-rendering:optimizeQuality; fill-rule:evenodd; clip-rule:evenodd"
viewBox="0 0 32 32"
 xmlns:xlink="http://www.w3.org/1999/xlink"
 xmlns:xodm="http://www.corel.com/coreldraw/odm/2003">
 <defs>
  <style type="text/css">
   <![CDATA[
    .fil1 {fill:#097EFE}
    .fil0 {fill:#EBB02E}
   ]]>
  </style>
 </defs>
 <g id="Capa_x0020_1">
  <metadata id="CorelCorpID_0Corel-Layer"/>
  <g id="_2642176678560">
   <path class="fil0" d="M8.65 29.23c0.49,3.11 4.75,3.5 6,0.83 0.43,-0.93 0.45,-8.7 0.27,-10.16 -0.42,-3.42 -4.91,-3.73 -6.05,-0.92 -0.39,0.94 -0.43,8.88 -0.22,10.25z"/>
   <path class="fil1" d="M19.15 0.37c-2.85,1.24 -2.08,4.16 -2.08,8.43 0,1.62 -0.25,3.49 0.54,4.78 0.58,0.94 2.14,1.73 3.77,1.16 2.78,-0.96 2.04,-5.06 2.04,-8.39 0,-1.62 0.22,-3.67 -0.52,-4.8 -0.63,-0.97 -2.21,-1.85 -3.75,-1.18z"/>
   <path class="fil0" d="M19.15 17.33c-3.18,1.38 -2.4,5.48 0.38,6 1.16,0.21 9.38,0.18 10.3,-0.14 2.88,-0.99 2.72,-5.44 -0.51,-6.04 -1.28,-0.24 -9.27,-0.21 -10.17,0.18z"/>
   <path class="fil1" d="M2.54 8.71c-3.21,0.9 -3.1,5.07 -0.37,6.01 0.89,0.31 9.23,0.36 10.33,0.11 3.1,-0.71 3.17,-5.04 0.31,-6.05 -0.8,-0.28 -9.39,-0.32 -10.27,-0.07z"/>
   <path class="fil0" d="M17.07 25.55c0,2.01 -0.28,4.25 0.89,5.45 1.15,1.17 3.43,1.14 4.55,-0.01 1.08,-1.1 1.14,-3.44 0.01,-4.55 -1.22,-1.19 -3.4,-0.89 -5.45,-0.89z"/>
   <path class="fil0" d="M6.48 17.07c-1.92,0 -4.14,-0.33 -5.36,0.89 -3.01,3 1.51,7.4 4.36,4.57 1.35,-1.33 1,-3.21 1,-5.46z"/>
   <path class="fil1" d="M14.89 6.41c1.13,-7.65 -4.15,-6.59 -5.38,-5.39 -0.66,0.64 -3.18,6.25 5.38,5.39z"/>
   <path class="fil1" d="M25.54 14.84c1.81,0.34 4.26,0.23 5.34,-0.81 1.31,-1.24 1.29,-3.3 0,-4.54 -1.33,-1.27 -3.28,-1.07 -4.45,0.09 -1.2,1.19 -0.89,3.31 -0.89,5.26z"/>
  </g>
 </g>
</svg>
