<?xml version="1.0" encoding="UTF-8"?>
<!DOCTYPE svg PUBLIC "-//W3C//DTD SVG 1.1//EN" "http://www.w3.org/Graphics/SVG/1.1/DTD/svg11.dtd">
<!-- Creator: CorelDRAW -->
<svg xmlns="http://www.w3.org/2000/svg" xml:space="preserve" width="400px" height="100px" version="1.1" style="shape-rendering:geometricPrecision; text-rendering:geometricPrecision; image-rendering:optimizeQuality; fill-rule:evenodd; clip-rule:evenodd"
viewBox="0 0 400 100"
 xmlns:xlink="http://www.w3.org/1999/xlink"
 xmlns:xodm="http://www.corel.com/coreldraw/odm/2003">
 <defs>
  <style type="text/css">
   <![CDATA[
    .fil2 {fill:#097EFE}
    .fil1 {fill:#EBB02E}
    .fil0 {fill:#FEFEFE}
   ]]>
  </style>
 </defs>
 <g id="Capa_x0020_1">
  <metadata id="CorelCorpID_0Corel-Layer"/>
  <g id="_2794818178464">
   <g id="_2642546682880">
    <path class="fil0" d="M395.9 31.66c1.06,-1.18 1.59,-2.25 2.59,-3.5l-18.25 -0.18c-3.34,0 -9.06,8.15 -11.41,11.06l-8.09 9.84c-1.31,1.38 -0.09,0.44 -1.72,1.31l0 -48.06 -16.9 0 0 82.69 16.9 -0.03 0.13 -24.16 19.65 24.32 20.6 0c-0.22,-3.5 -0.5,-2.13 -2.57,-4.47l-21.37 -25.07 20.44 -23.75 0 0z"/>
    <path class="fil0" d="M225.27 60.04c-2.03,-8.75 3.38,-15.5 10.07,-17.25 5.4,-1.44 10.96,0.59 14.84,4.4 1.87,1.85 1.97,1.91 2.03,5.13 0.13,8.12 1.84,15.19 -10,17.78 -8.41,1.84 -15.41,-3.44 -16.94,-10.06l0 0zm26.69 18.72l0.22 6.03 16.81 0.12 0.09 -56.78 -16.9 -0.12 -0.03 6.09c-0.13,-0.13 -0.32,-0.5 -0.38,-0.38 -0.06,0.1 -4.31,-5.34 -12.69,-6.65 -28.59,-4.44 -42.93,38.97 -16,55.53 4.32,2.65 10.03,4 15.75,3.12 2.57,-0.37 5.16,-1.18 7.66,-2.47 3.22,-1.65 2.91,-2.59 5.47,-4.5l0 0.01z"/>
    <path class="fil0" d="M333.27 70.91l-14.31 -5.81c-9.03,10.59 -24.88,4.47 -25.22,-8.22 -0.31,-10.56 10.25,-17.5 19.97,-13.22 2.94,1.28 4.69,3.63 6.56,5.63l13.25 -7.19c-6.81,-15.87 -34.69,-22.22 -48.5,-4.53 -3.69,4.69 -6.81,10.97 -6.84,18.66 -0.06,22.37 23.22,35.65 41.81,27.15 4.84,-2.22 11.94,-7.84 13.28,-12.47l0 0z"/>
    <path class="fil0" d="M172.09 33.26c-6.07,-6.22 -22.5,-7.91 -31.79,-4.53 -9.06,3.31 -16.81,14.81 -9.84,25.87 4.84,7.69 25.28,7.94 27.78,12.5 1.56,2.81 -1.03,4.88 -3.28,5.66 -8.44,3 -18.72,-2.69 -23.81,-5l-4.66 10.81c4.53,5.59 23.25,8.87 32,6.66 13.19,-3.32 18.66,-14.32 14.41,-23.94 -4.41,-9.94 -19.44,-10.35 -26.85,-13.97 -6.5,-3.16 -2.03,-8.81 6.44,-7.94 7.78,0.82 9.88,3.6 15.38,5.32l4.22 -11.44 0 0z"/>
    <polygon class="fil0" points="183.18,84.94 199.99,84.94 199.87,2.13 183.09,2.13 "/>
    <path class="fil1" d="M27.24 91.32c1.5,9.72 14.85,10.97 18.75,2.63 1.35,-2.91 1.41,-27.19 0.84,-31.79 -1.34,-10.65 -15.34,-11.62 -18.93,-2.84 -1.19,2.94 -1.35,27.75 -0.66,32l0 0z"/>
    <path class="fil2" d="M60.02 1.16c-8.87,3.88 -6.47,13 -6.47,26.35 0,5.03 -0.78,10.87 1.69,14.9 1.81,2.97 6.69,5.41 11.78,3.66 8.69,-3 6.38,-15.81 6.38,-26.22 0,-5.06 0.69,-11.47 -1.63,-15 -2,-3.03 -6.9,-5.78 -11.75,-3.69l0 0z"/>
    <path class="fil1" d="M60.02 54.16c-9.9,4.28 -7.47,17.13 1.22,18.72 3.63,0.69 29.28,0.6 32.16,-0.4 9.03,-3.1 8.5,-17 -1.56,-18.91 -4.04,-0.75 -28.97,-0.66 -31.82,0.59l0 0z"/>
    <path class="fil2" d="M8.15 27.23c-10.03,2.81 -9.69,15.84 -1.16,18.78 2.78,0.96 28.81,1.12 32.28,0.34 9.69,-2.22 9.91,-15.75 0.97,-18.91 -2.53,-0.87 -29.34,-1 -32.09,-0.21l0 0z"/>
    <path class="fil1" d="M53.55 79.85c-0.03,6.28 -0.87,13.28 2.79,17 3.59,3.66 10.71,3.59 14.21,0 3.35,-3.47 3.57,-10.78 0,-14.25 -3.78,-3.72 -10.59,-2.75 -17,-2.75l0 0z"/>
    <path class="fil1" d="M20.46 53.35c-6,0 -12.94,-1.03 -16.75,2.78 -9.41,9.38 4.72,23.1 13.63,14.28 4.18,-4.15 3.12,-10.03 3.12,-17.06z"/>
    <path class="fil2" d="M46.74 20.04c3.5,-23.91 -12.97,-20.6 -16.81,-16.85 -2.06,2 -9.94,19.53 16.81,16.85z"/>
    <path class="fil2" d="M80.02 46.35c5.66,1.09 13.31,0.75 16.69,-2.5 4.06,-3.88 4.03,-10.31 0,-14.19 -4.16,-3.97 -10.25,-3.34 -13.91,0.28 -3.75,3.72 -2.81,10.32 -2.78,16.41z"/>
   </g>
  </g>
 </g>
</svg>
