<?xml version="1.0" encoding="UTF-8"?>
<!DOCTYPE svg PUBLIC "-//W3C//DTD SVG 1.1//EN" "http://www.w3.org/Graphics/SVG/1.1/DTD/svg11.dtd">
<!-- Creator: CorelDRAW -->
<svg xmlns="http://www.w3.org/2000/svg" xml:space="preserve" width="400px" height="100px" version="1.1" style="shape-rendering:geometricPrecision; text-rendering:geometricPrecision; image-rendering:optimizeQuality; fill-rule:evenodd; clip-rule:evenodd"
viewBox="0 0 400 100"
 xmlns:xlink="http://www.w3.org/1999/xlink"
 xmlns:xodm="http://www.corel.com/coreldraw/odm/2003">
 <defs>
  <style type="text/css">
   <![CDATA[
    .fil0 {fill:#2B2A29}
    .fil2 {fill:#097EFE}
    .fil1 {fill:#EBB02E}
   ]]>
  </style>
 </defs>
 <g id="Capa_x0020_1">
  <metadata id="CorelCorpID_0Corel-Layer"/>
  <path class="fil0" d="M395.91 31.66c1.06,-1.19 1.59,-2.25 2.59,-3.5l-18.25 -0.19c-3.34,0 -9.06,8.16 -11.41,11.06l-8.09 9.84c-1.31,1.38 -0.09,0.44 -1.72,1.32l0 -48.07 -16.91 0 0 82.69 16.91 -0.03 0.13 -24.16 19.65 24.32 20.6 0c-0.22,-3.5 -0.5,-2.13 -2.57,-4.47l-21.37 -25.06 20.44 -23.75 0 0z"/>
  <path class="fil0" d="M225.28 60.03c-2.03,-8.75 3.38,-15.5 10.06,-17.25 5.41,-1.44 10.97,0.59 14.85,4.41 1.87,1.84 1.97,1.9 2.03,5.12 0.13,8.13 1.84,15.19 -10,17.78 -8.41,1.85 -15.41,-3.43 -16.94,-10.06l0 0zm26.69 18.72l0.22 6.03 16.81 0.13 0.09 -56.79 -16.9 -0.12 -0.03 6.09c-0.13,-0.12 -0.32,-0.5 -0.38,-0.37 -0.06,0.09 -4.31,-5.35 -12.69,-6.66 -28.59,-4.44 -42.93,38.97 -16,55.53 4.32,2.66 10.03,4 15.75,3.13 2.57,-0.38 5.16,-1.19 7.66,-2.47 3.22,-1.66 2.91,-2.6 5.47,-4.5l0 0z"/>
  <path class="fil0" d="M333.28 70.91l-14.31 -5.82c-9.03,10.6 -24.88,4.47 -25.22,-8.22 -0.31,-10.56 10.25,-17.5 19.97,-13.21 2.94,1.28 4.69,3.62 6.56,5.62l13.25 -7.19c-6.81,-15.87 -34.69,-22.21 -48.5,-4.53 -3.69,4.69 -6.81,10.97 -6.84,18.66 -0.06,22.38 23.22,35.66 41.81,27.16 4.84,-2.22 11.94,-7.85 13.28,-12.47l0 0z"/>
  <path class="fil0" d="M172.09 33.25c-6.06,-6.22 -22.5,-7.91 -31.78,-4.53 -9.06,3.31 -16.81,14.81 -9.84,25.87 4.84,7.69 25.28,7.94 27.78,12.5 1.56,2.81 -1.03,4.88 -3.28,5.66 -8.44,3 -18.72,-2.69 -23.81,-5l-4.66 10.81c4.53,5.6 23.25,8.88 32,6.66 13.19,-3.31 18.66,-14.31 14.41,-23.94 -4.41,-9.94 -19.44,-10.34 -26.85,-13.97 -6.5,-3.15 -2.03,-8.81 6.44,-7.93 7.78,0.81 9.87,3.59 15.38,5.31l4.21 -11.44 0 0z"/>
  <polygon class="fil0" points="183.19,84.94 200,84.94 199.87,2.12 183.09,2.12 "/>
  <path class="fil1" d="M27.25 91.31c1.5,9.72 14.84,10.97 18.75,2.63 1.34,-2.91 1.41,-27.19 0.84,-31.78 -1.34,-10.66 -15.34,-11.63 -18.94,-2.85 -1.18,2.94 -1.34,27.75 -0.65,32l0 0z"/>
  <path class="fil2" d="M60.03 1.16c-8.87,3.87 -6.47,13 -6.47,26.34 0,5.03 -0.78,10.88 1.69,14.91 1.81,2.97 6.69,5.4 11.78,3.65 8.69,-3 6.38,-15.81 6.38,-26.22 0,-5.06 0.68,-11.46 -1.63,-15 -2,-3.03 -6.9,-5.78 -11.75,-3.68l0 0z"/>
  <path class="fil1" d="M60.03 54.16c-9.91,4.28 -7.47,17.12 1.22,18.72 3.62,0.68 29.28,0.59 32.16,-0.41 9.03,-3.09 8.5,-17 -1.57,-18.91 -4.03,-0.75 -28.97,-0.65 -31.81,0.6l0 0z"/>
  <path class="fil2" d="M8.16 27.22c-10.04,2.81 -9.69,15.84 -1.16,18.78 2.78,0.97 28.81,1.12 32.28,0.34 9.69,-2.22 9.91,-15.75 0.97,-18.9 -2.53,-0.88 -29.34,-1 -32.1,-0.22l0.01 0z"/>
  <path class="fil1" d="M53.56 79.84c-0.03,6.28 -0.87,13.29 2.78,17 3.6,3.66 10.72,3.6 14.22,0 3.35,-3.47 3.56,-10.78 0,-14.25 -3.78,-3.72 -10.59,-2.75 -17,-2.75l0 0z"/>
  <path class="fil1" d="M20.47 53.34c-6,0 -12.94,-1.03 -16.75,2.78 -9.41,9.38 4.72,23.1 13.62,14.29 4.19,-4.16 3.13,-10.04 3.13,-17.07z"/>
  <path class="fil2" d="M46.75 20.03c3.5,-23.91 -12.97,-20.59 -16.81,-16.84 -2.07,2 -9.94,19.53 16.81,16.84z"/>
  <path class="fil2" d="M80.03 46.34c5.66,1.1 13.31,0.75 16.69,-2.5 4.06,-3.87 4.03,-10.31 0,-14.18 -4.16,-3.97 -10.25,-3.35 -13.91,0.28 -3.75,3.72 -2.81,10.31 -2.78,16.4z"/>
 </g>
</svg>
