<?xml version="1.0" encoding="UTF-8"?>
<!DOCTYPE svg PUBLIC "-//W3C//DTD SVG 1.1//EN" "http://www.w3.org/Graphics/SVG/1.1/DTD/svg11.dtd">
<!-- Creator: CorelDRAW -->
<svg xmlns="http://www.w3.org/2000/svg" xml:space="preserve" width="56px" height="56px" version="1.1" style="shape-rendering:geometricPrecision; text-rendering:geometricPrecision; image-rendering:optimizeQuality; fill-rule:evenodd; clip-rule:evenodd"
viewBox="0 0 56 56"
 xmlns:xlink="http://www.w3.org/1999/xlink"
 xmlns:xodm="http://www.corel.com/coreldraw/odm/2003">
 <defs>
  <style type="text/css">
   <![CDATA[
    .fil0 {fill:black}
   ]]>
  </style>
 </defs>
 <g id="Capa_x0020_1">
  <metadata id="CorelCorpID_0Corel-Layer"/>
  <path class="fil0" d="M9.39 20.69c0,6.24 1.49,8.05 4.23,12.62 2.65,4.42 5.81,9.17 8.41,13.56l3.58 5.78c0.44,0.75 0.77,1.44 1.8,1.44 0.98,0 1.28,-0.77 1.66,-1.4l8.12 -13.55c1.66,-2.75 5.72,-9.12 6.7,-11.92 1.37,-3.87 1.26,-7.93 -0.06,-11.81 -0.42,-1.23 -1.42,-3.2 -2.19,-4.22 -1.51,-1.99 -2.35,-2.83 -4.28,-4.29 -1.05,-0.79 -2.87,-1.73 -4.12,-2.18 -0.52,-0.19 -1.05,-0.34 -1.65,-0.51 -1.12,-0.33 -2.45,-0.51 -3.81,-0.56l-1.34 0c-1.32,0.05 -2.62,0.22 -3.71,0.53 -0.59,0.17 -1.03,0.3 -1.59,0.49 -0.6,0.21 -1.02,0.44 -1.52,0.64 -2.09,0.85 -4.59,2.9 -6.03,4.62 -2.43,2.88 -4.2,6.93 -4.2,10.76zm8.86 0.4c0,3.83 1.85,6.81 4.99,8.31 3.43,1.63 7.46,0.95 10.21,-1.78 1.65,-1.65 2.54,-3.66 2.54,-6.53 0,-1.81 -0.67,-3.46 -1.6,-4.81 -0.34,-0.51 -0.57,-0.75 -0.99,-1.18 -1.81,-1.81 -3.9,-2.58 -6.58,-2.58 -1.81,0 -3.45,0.67 -4.81,1.59 -0.78,0.53 -1.58,1.33 -2.12,2.11 -0.96,1.38 -1.64,3.02 -1.64,4.87z"/>
 </g>
</svg>
